<svg width="16" height="21" viewBox="0 0 16 21" fill="none" xmlns="http://www.w3.org/2000/svg">
<path d="M12.6171 0.88436C9.71556 0.397922 6.73762 0.397922 3.83606 0.88436C2.77602 1.06207 1.93183 1.87587 1.71928 2.93105C0.745572 7.76505 0.692444 12.7393 1.56268 17.593L1.91699 19.5691C2.02624 20.1785 2.76908 20.422 3.21789 19.9957L7.49455 15.9328C7.90478 15.5431 8.54841 15.5431 8.95864 15.9328L13.2353 19.9957C13.6841 20.422 14.4269 20.1785 14.5362 19.5691L14.8905 17.593C15.7607 12.7393 15.7076 7.76505 14.7339 2.93105C14.5214 1.87587 13.6772 1.06207 12.6171 0.88436Z" fill="#6C5FBC"/>
</svg>
