<svg width="17" height="16" viewBox="0 0 17 16" fill="none" xmlns="http://www.w3.org/2000/svg">
<mask id="path-1-inside-1_1_16633" fill="white">
<path d="M16.0767 8.96279H9.73714V15.3916H7.20726V8.96279H0.897461V6.67102H7.20726V0.212402H9.73714V6.67102H16.0767V8.96279Z"/>
</mask>
<path d="M16.0767 8.96279H9.73714V15.3916H7.20726V8.96279H0.897461V6.67102H7.20726V0.212402H9.73714V6.67102H16.0767V8.96279Z" fill="black"/>
<path d="M16.0767 8.96279V13.0718H20.1858V8.96279H16.0767ZM9.73714 8.96279V4.85374H5.62809V8.96279H9.73714ZM9.73714 15.3916V19.5007H13.8462V15.3916H9.73714ZM7.20726 15.3916H3.09821V19.5007H7.20726V15.3916ZM7.20726 8.96279H11.3163V4.85374H7.20726V8.96279ZM0.897461 8.96279H-3.21159V13.0718H0.897461V8.96279ZM0.897461 6.67102V2.56197H-3.21159V6.67102H0.897461ZM7.20726 6.67102V10.7801H11.3163V6.67102H7.20726ZM7.20726 0.212402V-3.89665H3.09821V0.212402H7.20726ZM9.73714 0.212402H13.8462V-3.89665H9.73714V0.212402ZM9.73714 6.67102H5.62809V10.7801H9.73714V6.67102ZM16.0767 6.67102H20.1858V2.56197H16.0767V6.67102ZM16.0767 4.85374H9.73714V13.0718H16.0767V4.85374ZM5.62809 8.96279V15.3916H13.8462V8.96279H5.62809ZM9.73714 11.2826H7.20726V19.5007H9.73714V11.2826ZM11.3163 15.3916V8.96279H3.09821V15.3916H11.3163ZM7.20726 4.85374H0.897461V13.0718H7.20726V4.85374ZM5.00651 8.96279V6.67102H-3.21159V8.96279H5.00651ZM0.897461 10.7801H7.20726V2.56197H0.897461V10.7801ZM11.3163 6.67102V0.212402H3.09821V6.67102H11.3163ZM7.20726 4.32145H9.73714V-3.89665H7.20726V4.32145ZM5.62809 0.212402V6.67102H13.8462V0.212402H5.62809ZM9.73714 10.7801H16.0767V2.56197H9.73714V10.7801ZM11.9677 6.67102V8.96279H20.1858V6.67102H11.9677Z" fill="white" mask="url(#path-1-inside-1_1_16633)"/>
</svg>
