<svg width="17" height="16" viewBox="0 0 17 16" fill="none" xmlns="http://www.w3.org/2000/svg">
<path d="M7.83121 0.741543C8.15247 -0.247181 9.55125 -0.247181 9.8725 0.741543L11.0203 4.2742C11.164 4.71637 11.5761 5.01575 12.041 5.01575H15.7554C16.795 5.01575 17.2273 6.34607 16.3862 6.95713L13.3812 9.14044C13.005 9.41371 12.8476 9.89811 12.9913 10.3403L14.1391 13.8729C14.4604 14.8617 13.3288 15.6838 12.4877 15.0728L9.48265 12.8895C9.10652 12.6162 8.59719 12.6162 8.22106 12.8895L5.216 15.0728C4.37494 15.6838 3.24331 14.8617 3.56456 13.8729L4.71239 10.3403C4.85606 9.89811 4.69867 9.41371 4.32254 9.14044L1.31748 6.95713C0.476422 6.34607 0.908669 5.01575 1.94827 5.01575H5.66273C6.12766 5.01575 6.53971 4.71637 6.68338 4.2742L7.83121 0.741543Z" fill="#F59E0B"/>
</svg>
