<svg width="24" height="24" viewBox="0 0 24 24" fill="none" xmlns="http://www.w3.org/2000/svg">
<path d="M14.9251 19.117C16.4485 19.9509 17.7883 18.9403 17.497 17.1716L16.9738 13.9959L19.1899 11.7468C20.4224 10.496 19.9132 8.85704 18.2075 8.59899L15.1449 8.13566L13.7821 5.2606C13.0187 3.65013 11.3611 3.63281 10.5963 5.24631L9.22663 8.13566L6.16403 8.59899C4.46074 8.85667 3.9474 10.4942 5.18165 11.7468L7.39777 13.9959L6.87461 17.1716C6.58366 18.9378 7.9209 19.9521 9.44652 19.117L12.1858 17.6177L14.9251 19.117Z" fill="#6C5FBC"/>
<mask id="mask0_1_16682" style="mask-type:luminance" maskUnits="userSpaceOnUse" x="4" y="4" width="16" height="16">
<path d="M14.9251 19.117C16.4485 19.9509 17.7883 18.9403 17.497 17.1716L16.9738 13.9959L19.1899 11.7468C20.4224 10.496 19.9132 8.85704 18.2075 8.59899L15.1449 8.13566L13.7821 5.2606C13.0187 3.65013 11.3611 3.63281 10.5963 5.24631L9.22663 8.13566L6.16403 8.59899C4.46074 8.85667 3.9474 10.4942 5.18165 11.7468L7.39777 13.9959L6.87461 17.1716C6.58366 18.9378 7.9209 19.9521 9.44652 19.117L12.1858 17.6177L14.9251 19.117Z" fill="white"/>
</mask>
<g mask="url(#mask0_1_16682)">
</g>
</svg>
