<svg width="47" height="53" viewBox="0 0 47 53" fill="none" xmlns="http://www.w3.org/2000/svg">
<path d="M33.3326 44.2172H13.8164C10.3426 44.2172 7.53223 41.1354 7.53223 37.3259V33.2168H39.6168V37.3259C39.6168 41.1354 36.8065 44.2172 33.3326 44.2172Z" stroke="#1C186C" stroke-width="4.63957" stroke-linecap="round" stroke-linejoin="round"/>
<path d="M38.6219 26.6245H8.52795C6.86908 26.6245 5.52246 28.1012 5.52246 29.9203C5.52246 31.7395 6.86908 33.2162 8.52795 33.2162H38.6219C40.2808 33.2162 41.6274 31.7395 41.6274 29.9203C41.6274 28.1012 40.2808 26.6245 38.6219 26.6245Z" stroke="#1C186C" stroke-width="4.63957" stroke-linecap="round" stroke-linejoin="round"/>
<path d="M24.6089 9.03271H22.5402C14.2458 9.03271 7.53223 16.3948 7.53223 25.4905V26.6247H39.6168V25.4905C39.6168 16.3948 32.9033 9.03271 24.6089 9.03271Z" stroke="#1C186C" stroke-width="4.63957" stroke-linecap="round" stroke-linejoin="round"/>
<path d="M7.31738 33.7515C8.07851 34.6503 8.62497 35.8702 10.0496 35.8702C11.4743 35.8702 12.0208 34.6503 12.7819 33.7515" stroke="#1C186C" stroke-width="4.63957" stroke-linecap="round" stroke-linejoin="round"/>
<path d="M25.6426 33.7515C26.4037 34.6503 26.9502 35.8702 28.3748 35.8702C29.819 35.8702 30.3655 34.6503 31.1266 33.7515" stroke="#1C186C" stroke-width="4.63957" stroke-linecap="round" stroke-linejoin="round"/>
<path d="M37.5662 35.8487C36.1416 35.8487 35.5951 34.6288 34.834 33.73" stroke="#1C186C" stroke-width="4.63957" stroke-linecap="round" stroke-linejoin="round"/>
<path d="M16.4893 33.7515C17.2504 34.6503 17.7968 35.8702 19.2215 35.8702C20.6462 35.8702 21.1927 34.6503 21.9538 33.7515" stroke="#1C186C" stroke-width="4.63957" stroke-linecap="round" stroke-linejoin="round"/>
</svg>
