<svg width="48" height="52" viewBox="0 0 48 52" fill="none" xmlns="http://www.w3.org/2000/svg">
<path d="M41.8543 36.3139C39.4929 41.7927 34.4187 45.5808 28.5248 45.5808C20.3866 45.5808 13.7705 38.3257 13.7705 29.4012C13.7705 21.4613 19.0008 14.8482 25.9096 13.4785C26.1438 18.2939 29.364 22.2531 33.5795 23.1306C33.5014 23.7084 33.4429 24.3077 33.4429 24.9069C33.4429 30.5141 37.0534 35.201 41.8543 36.3139Z" stroke="#1C186C" stroke-width="4.63957" stroke-linecap="round" stroke-linejoin="round"/>
<path d="M22.4163 20.5845C21.2258 20.5845 20.25 21.6545 20.25 22.96C20.25 24.2655 21.2258 25.3356 22.4163 25.3356C23.6068 25.3356 24.5826 24.2655 24.5826 22.96C24.5826 21.6331 23.6068 20.5845 22.4163 20.5845Z" fill="#201D67"/>
<path d="M17.635 8.19287C16.4445 8.19287 15.4688 9.26295 15.4688 10.5684C15.4688 11.8739 16.4445 12.944 17.635 12.944C18.8255 12.944 19.8013 11.8739 19.8013 10.5684C19.7818 9.24155 18.8255 8.19287 17.635 8.19287Z" fill="#201D67"/>
<path d="M28.72 27.8813C27.5295 27.8813 26.5537 28.9514 26.5537 30.2569C26.5537 31.5624 27.5295 32.6325 28.72 32.6325C29.9105 32.6325 30.8863 31.5624 30.8863 30.2569C30.8863 28.93 29.9105 27.8813 28.72 27.8813Z" fill="#201D67"/>
<path d="M30.5943 37.4058C30.5943 37.4058 30.1844 37.6626 29.6575 38.005C29.1501 38.326 28.7207 38.6042 28.7207 38.6042C28.7207 38.6042 29.1306 38.3474 29.6575 38.005C30.1649 37.6626 30.5943 37.4058 30.5943 37.4058Z" stroke="#1C186C" stroke-width="4.63957" stroke-linecap="round" stroke-linejoin="round"/>
<path d="M20.6592 31.2637C20.6592 31.2637 21.108 31.4777 21.6545 31.7345C22.2009 31.9913 22.6498 32.2053 22.6498 32.2053C22.6498 32.2053 22.2009 31.9913 21.6545 31.7345C21.108 31.4777 20.6592 31.2637 20.6592 31.2637Z" stroke="#1C186C" stroke-width="4.63957" stroke-linecap="round" stroke-linejoin="round"/>
<path d="M10.9795 17.8023C10.9795 17.8023 11.3308 17.4385 11.7601 16.989C12.1895 16.5396 12.5408 16.1758 12.5408 16.1758C12.5408 16.1758 12.1895 16.5396 11.7601 16.989C11.3308 17.4385 10.9795 17.8023 10.9795 17.8023Z" stroke="#1C186C" stroke-width="4.63957" stroke-linecap="round" stroke-linejoin="round"/>
<path d="M9.00728 29.723C6.97759 27.1976 5.74805 23.9018 5.74805 20.285C5.74805 12.3878 11.5834 5.98877 18.7848 5.98877C24.6007 5.98877 29.5383 10.1621 31.2166 15.9405" stroke="#1C186C" stroke-width="4.63957" stroke-linecap="round" stroke-linejoin="round"/>
</svg>
