<svg width="48" height="52" viewBox="0 0 48 52" fill="none" xmlns="http://www.w3.org/2000/svg">
<path d="M21.5401 12.5776C20.2867 12.2723 18.9835 12.316 17.7495 12.7048C16.5154 13.0936 15.3898 13.815 14.4753 14.8034C14.0877 15.2424 13.8711 15.8295 13.8711 16.4406C13.8711 17.0516 14.0877 17.6387 14.4753 18.0778L16.7001 20.6032" stroke="#1C186C" stroke-width="4.63957" stroke-linecap="round" stroke-linejoin="round"/>
<path d="M36.0988 28.8213C36.3669 30.2129 36.3146 31.6558 35.9466 33.0196C35.5786 34.3835 34.9065 35.6253 33.9911 36.6328C33.7969 36.8477 33.5659 37.0182 33.3113 37.1346C33.0567 37.2509 32.7837 37.3108 32.5078 37.3108C32.232 37.3108 31.959 37.2509 31.7044 37.1346C31.4498 37.0182 31.2188 36.8477 31.0246 36.6328L28.7607 34.1075" stroke="#1C186C" stroke-width="4.63957" stroke-linecap="round" stroke-linejoin="round"/>
<path d="M18.2422 34.6212C19.0471 36.0171 19.4735 37.6351 19.4717 39.2867C19.4712 40.4014 19.2692 41.505 18.8772 42.5336C18.4853 43.5622 17.9112 44.4954 17.1883 45.2791C17.0519 45.4144 16.8746 45.4894 16.6907 45.4894C16.5067 45.4894 16.3294 45.4144 16.193 45.2791C15.5546 44.5703 15.0447 43.7352 14.6902 42.8179C14.3676 42.1474 14.1436 41.4251 14.0267 40.6778C13.9822 40.2225 13.9822 39.7633 14.0267 39.3081C14.3774 37.2271 15.3447 35.3313 16.7785 33.9149C15.4495 35.4487 13.7037 36.4697 11.8018 36.8255C11.3864 36.8688 10.9682 36.8688 10.5528 36.8255C9.87022 36.6795 9.21205 36.4196 8.60119 36.0551C7.7612 35.618 7.00583 35.0077 6.37634 34.2573C6.25292 34.1078 6.18457 33.9133 6.18457 33.7116C6.18457 33.5099 6.25292 33.3154 6.37634 33.1658C7.83668 31.6 9.79846 30.7241 11.8409 30.7261C13.3386 30.7367 14.802 31.2196 16.0564 32.1172" stroke="#1C186C" stroke-width="4.63957" stroke-linecap="round" stroke-linejoin="round"/>
<path d="M40.6276 7.84752C40.3964 7.55738 40.1343 7.29871 39.8469 7.07706C39.044 6.5162 38.1473 6.13648 37.209 5.9601C36.2707 5.78371 35.3098 5.8142 34.3824 6.04979C32.1905 6.41304 30.0755 7.20305 28.1372 8.38255C24.4926 10.3129 21.4306 13.3512 19.3159 17.1358C17.4407 20.9406 16.3796 25.1634 16.2128 29.4844C16.2128 29.7841 15.8811 32.0312 16.0957 32.181L18.262 34.6208C18.3986 34.8562 20.4283 34.6208 20.7016 34.5138C24.6615 34.4003 28.5432 33.2794 32.0405 31.2394C35.51 28.9922 38.3048 25.6819 40.0811 21.7157C41.7986 17.7992 43.7502 11.5714 40.6276 7.84752Z" stroke="#1C186C" stroke-width="4.63957" stroke-linecap="round" stroke-linejoin="round"/>
<path d="M27.042 10.3306C27.8335 13.2511 29.26 15.9171 31.1989 18.0993C33.1461 20.2762 35.5525 21.8934 38.2053 22.8076" stroke="#1C186C" stroke-width="4.63957" stroke-linecap="round" stroke-linejoin="round"/>
<path d="M35.4749 10.3942C35.2929 10.1871 35.0746 10.0223 34.8332 9.90979C34.5918 9.79726 34.3321 9.73926 34.0698 9.73926C33.8074 9.73926 33.5478 9.79726 33.3064 9.90979C33.0649 10.0223 32.8467 10.1871 32.6646 10.3942C32.3989 10.6965 32.2201 11.0779 32.1506 11.4909C32.0811 11.9038 32.1239 12.3301 32.2737 12.7166C32.4235 13.103 32.6736 13.4326 32.993 13.6643C33.3124 13.896 33.6868 14.0196 34.0698 14.0196C34.4527 14.0196 34.8272 13.896 35.1466 13.6643C35.4659 13.4326 35.7161 13.103 35.8659 12.7166C36.0157 12.3301 36.0585 11.9038 35.989 11.4909C35.9195 11.0779 35.7407 10.6965 35.4749 10.3942Z" fill="#201D67"/>
</svg>
