<svg width="48" height="52" viewBox="0 0 48 52" fill="none" xmlns="http://www.w3.org/2000/svg">
<path d="M30.0624 10.7759L10.0779 32.6911C7.95061 35.0238 7.95061 38.7905 10.0779 41.1233C12.2051 43.456 15.64 43.456 17.7672 41.1233L37.7518 19.2081C39.8791 16.8754 39.8791 13.1087 37.7518 10.7759C35.6245 8.44318 32.1897 8.44318 30.0624 10.7759Z" stroke="#1C186C" stroke-width="4.63957" stroke-linecap="round" stroke-linejoin="round"/>
<path d="M14.2734 35.6018C16.5763 33.0764 17.396 33.9753 19.7184 31.4499C22.0214 28.9245 21.2017 28.0256 23.5046 25.4789C25.8075 22.9535 26.6467 23.8524 28.9496 21.327C31.2525 18.8016 30.4328 17.8813 32.7357 15.356" stroke="#1C186C" stroke-width="4.63957" stroke-linecap="round" stroke-linejoin="round"/>
<path d="M23.1527 8.25091L7.77391 25.1153C5.21729 27.9189 5.21729 32.4346 7.77391 35.2382L32.3643 8.27231C29.8272 5.44731 25.6898 5.44731 23.1527 8.25091Z" stroke="#1C186C" stroke-width="4.63957" stroke-linecap="round" stroke-linejoin="round"/>
<path d="M24.6755 43.6484L40.0543 26.784C42.6109 23.9804 42.6109 19.4647 40.0543 16.6611L15.4639 43.627C18.001 46.452 22.1384 46.452 24.6755 43.6484Z" stroke="#1C186C" stroke-width="4.63957" stroke-linecap="round" stroke-linejoin="round"/>
</svg>
