<svg width="48" height="52" viewBox="0 0 48 52" fill="none" xmlns="http://www.w3.org/2000/svg">
<path d="M16.1816 21.4282L24.2028 45.6333L32.2239 21.4282" stroke="#1C186C" stroke-width="4.63957" stroke-linecap="round" stroke-linejoin="round"/>
<path d="M36.2441 20.3369C35.9123 20.3369 35.6196 20.3583 35.3464 20.4011C33.1996 20.7863 32.9068 22.5413 30.2136 22.5413C27.1886 22.5413 27.1886 20.3369 24.2026 20.3369C21.1776 20.3369 21.1776 22.5413 18.1916 22.5413C15.4984 22.5413 15.2252 20.8077 13.0589 20.4011C12.8052 20.3583 12.4929 20.3369 12.1611 20.3369" stroke="#1C186C" stroke-width="4.63957" stroke-linecap="round" stroke-linejoin="round"/>
<path d="M34.2345 17.0414C34.2345 18.1971 34.0784 19.3527 33.7466 20.4014C31.8926 20.7866 31.6584 22.5416 29.3555 22.5416C26.7598 22.5416 26.7598 20.3372 24.2032 20.3372C21.6075 20.3372 21.6075 22.5416 19.0509 22.5416C16.748 22.5416 16.4943 20.808 14.6598 20.4014C14.3475 19.3527 14.1719 18.1971 14.1719 17.0414C14.1719 10.9634 18.6606 6.04102 24.2032 6.04102C29.7458 6.04102 34.2345 10.9634 34.2345 17.0414Z" stroke="#1C186C" stroke-width="4.63957" stroke-linecap="round" stroke-linejoin="round"/>
<path d="M34.2345 23.6338H14.1719" stroke="#1C186C" stroke-width="4.63957" stroke-linecap="round" stroke-linejoin="round"/>
</svg>
