<svg width="48" height="52" viewBox="0 0 48 52" fill="none" xmlns="http://www.w3.org/2000/svg">
<path d="M14.2568 12.9697C19.6628 13.3336 25.0688 15.9231 29.3428 20.6743C33.5779 25.3826 35.9003 31.375 36.2516 37.3674" stroke="#1C186C" stroke-width="4.63957" stroke-linecap="round" stroke-linejoin="round"/>
<path d="M38.4741 38.7583L36.0736 39.4003L11.7174 45.9278C8.43872 46.8052 5.56985 43.595 6.38953 39.9568L8.10693 32.2522L8.22403 31.76L9.72678 25.0613L9.86341 24.4193L12.4005 13.1835L13.025 10.4441C13.6105 7.81172 15.9329 6.121 18.3139 6.54903C24.1688 7.5977 29.6723 10.5511 34.0635 15.4307C38.4351 20.2674 41.0698 26.3668 42.0261 32.8515C42.4164 35.5053 40.8551 38.1162 38.4741 38.7583Z" stroke="#1C186C" stroke-width="4.63957" stroke-linecap="round" stroke-linejoin="round"/>
<path d="M23.7603 31.9092C25.4849 31.9092 26.8829 30.3569 26.8829 28.4421C26.8829 26.5273 25.4849 24.9751 23.7603 24.9751C22.0357 24.9751 20.6377 26.5273 20.6377 28.4421C20.6377 30.3569 22.0357 31.9092 23.7603 31.9092Z" stroke="#1C186C" stroke-width="4.63957" stroke-linecap="round" stroke-linejoin="round"/>
<path d="M12.205 30.6048C11.1316 31.8033 9.58977 32.1885 8.22363 31.7177L10.1753 22.9858C10.9169 23.1785 11.6195 23.5637 12.205 24.2057C13.8053 25.982 13.8053 28.8499 12.205 30.6048Z" stroke="#1C186C" stroke-width="4.63957" stroke-linecap="round" stroke-linejoin="round"/>
<path d="M14.6648 42.8032C14.372 41.5619 14.6648 40.1922 15.5235 39.2292C16.8311 37.7739 18.9388 37.7739 20.2464 39.2292C20.6758 39.7 20.9685 40.2778 21.1051 40.8985" stroke="#1C186C" stroke-width="4.63957" stroke-linecap="round" stroke-linejoin="round"/>
</svg>
