<svg width="48" height="52" viewBox="0 0 48 52" fill="none" xmlns="http://www.w3.org/2000/svg">
<path d="M41.3489 34.8296H6.21973C6.21973 38.3822 8.8349 41.25 12.0746 41.25H35.494C38.7337 41.25 41.3489 38.3822 41.3489 34.8296Z" stroke="#1C186C" stroke-width="4.63957" stroke-linecap="round" stroke-linejoin="round"/>
<path d="M23.7848 15.5684C15.1587 15.5684 8.17188 23.2301 8.17188 32.6896V34.8297H39.3978V32.6896C39.3978 23.2301 32.411 15.5684 23.7848 15.5684Z" stroke="#1C186C" stroke-width="4.63957" stroke-linecap="round" stroke-linejoin="round"/>
<path d="M23.7845 17.1736C25.6707 17.1736 27.1998 15.4968 27.1998 13.4284C27.1998 11.3599 25.6707 9.68311 23.7845 9.68311C21.8982 9.68311 20.3691 11.3599 20.3691 13.4284C20.3691 15.4968 21.8982 17.1736 23.7845 17.1736Z" fill="#201D67"/>
</svg>
